<?xml version="1.0" encoding="UTF-8" standalone="no"?>
<svg
   xmlns:dc="http://purl.org/dc/elements/1.1/"
   xmlns:cc="http://creativecommons.org/ns#"
   xmlns:rdf="http://www.w3.org/1999/02/22-rdf-syntax-ns#"
   xmlns:svg="http://www.w3.org/2000/svg"
   xmlns="http://www.w3.org/2000/svg"
   viewBox="0 0 2560 760"
   height="760"
   width="2560"
   xml:space="preserve"
   id="svg2"
   version="1.1"><metadata
     id="metadata8"><rdf:RDF><cc:Work
         rdf:about=""><dc:format>image/svg+xml</dc:format><dc:type
           rdf:resource="http://purl.org/dc/dcmitype/StillImage" /></cc:Work></rdf:RDF></metadata><defs
     id="defs6"><clipPath
       id="clipPath20"
       clipPathUnits="userSpaceOnUse"><path
         id="path18"
         d="m 129.961,50.5508 h 18930 v 5569.45 h -18930 z" /></clipPath></defs><g
     transform="matrix(1.3333333,0,0,-1.3333333,0,760)"
     id="g10"><g
       transform="scale(0.1)"
       id="g12"><g
         id="g14"><g
           clip-path="url(#clipPath20)"
           id="g16"><path
             id="path22"
             style="fill:#ffffff;fill-opacity:1;fill-rule:nonzero;stroke:none"
             d="m 2733.68,1319.87 c 0,-169.31 -33.07,-330.819 -98.65,-484.53 C 2569.17,681.352 2478.5,546.711 2362.84,431.34 2247.09,315.961 2111.51,223.699 1956.49,154.449 1801.37,85.2109 1634.22,50.5391 1455.52,50.5391 c -152.68,0 -307.7,20.5703 -465.543,61.6329 C 832.133,153.141 690.168,223.699 563.891,323.57 437.617,423.629 333.703,555.641 252.242,719.871 170.598,883.82 130.008,1091.56 130.008,1342.88 v 3015.58 c 0,179.54 31.476,346.22 94.613,500.02 63.137,153.9 152.488,287.13 268.238,400.06 115.661,112.66 253.774,201.25 414.246,265.42 160.475,64.08 337.955,96.12 532.635,96.12 184.05,0 355.05,-32.04 512.8,-96.12 157.75,-64.17 294.55,-153.99 410.3,-269.27 115.66,-115.38 206.33,-253.87 272.19,-415.37 65.58,-161.7 98.65,-337.4 98.65,-526.9 v -307.8 h -804.72 v 261.48 c 0,153.99 -44.72,287.22 -134.17,400.06 -89.44,112.65 -210.46,169.21 -362.95,169.21 -200.02,0 -332.78,-60.32 -398.46,-180.67 -65.86,-120.64 -98.65,-273.13 -98.65,-457.75 V 1396.81 c 0,-158.97 35.516,-292.29 106.54,-399.958 70.94,-107.77 198.44,-161.512 382.68,-161.512 52.52,0 109.08,8.93 169.59,26.871 60.41,17.848 115.66,47.258 165.74,88.32 49.79,41.059 90.66,97.429 122.33,169.399 31.56,71.69 47.35,161.51 47.35,269.18 v 269.28 h 804.72" /><path
             id="path24"
             style="fill:#ffffff;fill-opacity:1;fill-rule:nonzero;stroke:none"
             d="m 4993.64,3996.94 h -15.5 l -386.72,-1984.7 h 789.03 z m -332.6,1576.94 h 657.59 L 6548.78,96.6914 H 5759.65 L 5527.59,1273.75 H 4452.18 L 4220.11,96.6914 h -789.22" /><path
             id="path26"
             style="fill:#ffffff;fill-opacity:1;fill-rule:nonzero;stroke:none"
             d="m 9944.89,3996.94 h -786.87 v 176.91 c 0,179.46 -42.38,334.58 -127.31,465.46 -84.94,130.78 -227.66,196.08 -428.25,196.08 -108.05,0 -196.65,-20.48 -266.17,-61.45 -69.34,-41.15 -123.37,-93.67 -161.98,-157.75 -38.62,-64.26 -65.58,-138.49 -80.99,-223.14 -15.5,-84.65 -23.11,-172.97 -23.11,-265.33 0,-107.67 3.85,-198.9 11.55,-273.12 7.71,-74.42 26.97,-138.4 57.88,-192.33 30.82,-53.84 75.82,-101.38 135.01,-142.25 59.1,-41.15 140.09,-82.11 242.97,-123.17 l 601.78,-238.46 c 174.76,-66.71 316.34,-144.88 424.3,-234.6 108.05,-89.82 191.67,-194.87 250.76,-315.41 59.1,-120.54 99.03,-259.03 119.61,-415.37 20.48,-156.44 30.82,-334.67 30.82,-534.7 0,-230.75 -23.12,-444.88 -69.44,-642.37 C 9829.23,818.641 9753.22,649.242 9647.89,508.211 9542.48,367.18 9402.3,255.66 9227.35,173.73 9052.5,91.8008 8838.94,50.5625 8587.05,50.5625 c -190.35,0 -367.83,33.5391 -532.25,100.0585 -164.7,66.609 -306.11,157.649 -424.4,273.027 -118.38,115.383 -212.14,252.461 -281.67,411.711 -69.34,158.883 -104.01,330.631 -104.01,515.251 v 292.29 h 786.87 v -246.07 c 0,-143.65 42.47,-273.12 127.22,-388.59 84.93,-115.381 227.65,-172.881 428.24,-172.881 133.7,0 237.9,19.172 312.5,57.5 74.5,38.52 131.16,92.45 169.77,161.701 38.52,69.15 62.86,154.93 73.29,257.71 10.14,102.51 15.41,215.35 15.41,338.34 0,143.56 -5.27,261.66 -15.41,353.92 -10.43,92.27 -32.23,166.58 -65.58,223.15 -33.55,56.37 -79.87,102.5 -138.96,138.39 -59.19,35.8 -137.65,74.32 -235.36,115.38 l -563.07,230.84 c -339.55,138.4 -567.11,321.71 -682.77,550.01 -115.85,228.13 -173.63,514.03 -173.63,857.81 0,204.92 28.28,399.97 84.84,584.59 56.56,184.62 140,343.5 250.77,476.91 110.58,133.32 250.76,239.59 420.45,319.26 169.68,79.49 367.73,119.13 594.07,119.13 195.33,0 374.13,-35.79 536.2,-107.57 161.98,-71.97 300.84,-166.87 416.6,-284.68 115.75,-118.01 204.35,-250.11 266.17,-396.12 61.73,-146.29 92.55,-296.33 92.55,-450.04" /><path
             id="path28"
             style="fill:#ffffff;fill-opacity:1;fill-rule:nonzero;stroke:none"
             d="m 11058.4,5573.89 h 2338.4 V 4835.41 H 11843 V 3227.65 h 1353.8 V 2489.17 H 11843 V 881.422 h 1553.8 V 96.7109 h -2338.4" /><path
             id="path30"
             style="fill:#ffffff;fill-opacity:1;fill-rule:nonzero;stroke:none"
             d="m 14536.1,96.6797 h 746.301 v 3900.91 H 14536.1 Z" /><g
             transform="scale(1.16933)"
             id="g32"><path
               id="path34"
               style="fill:#ffffff;fill-opacity:1;fill-rule:nonzero;stroke:none"
               d="m 14813,4135.18 h -797.7 v 631.55 H 16300 v -631.55 h -797.6 V 82.6732 H 14813" /></g><path
             id="path36"
             style="fill:#d51e28;fill-opacity:1;fill-rule:nonzero;stroke:none"
             d="m 15438.4,5067.05 c 0,-301.41 -244.4,-545.78 -545.8,-545.78 -301.4,0 -545.7,244.37 -545.7,545.78 0,301.41 244.3,545.79 545.7,545.79 301.4,0 545.8,-244.38 545.8,-545.79" /></g></g></g></g></svg>