<svg width="772" height="772" viewBox="0 0 772 772" fill="none" xmlns="http://www.w3.org/2000/svg">
<path d="M150.953 99.3204C152.506 97.0288 154.91 94.5347 157.945 91.8858L158.602 92.6392C160.91 90.6247 163.595 88.5125 166.562 86.323L165.968 85.5184C168.572 83.5962 171.385 81.6205 174.338 79.6057L174.902 80.4318C177.632 78.5696 180.484 76.673 183.406 74.7526L182.856 73.9169C185.608 72.1086 188.419 70.2808 191.246 68.4431C191.31 68.4015 191.374 68.3599 191.438 68.3183L191.983 69.1566C194.843 67.2972 197.72 65.4263 200.565 63.555L200.016 62.7194C202.905 60.8197 205.762 58.9198 208.538 57.0303L209.101 57.857C210.531 56.8833 211.941 55.9118 213.323 54.9442C214.915 53.8302 216.466 52.8397 217.979 51.9627L217.478 51.0975C221.074 49.0132 224.48 47.5507 227.74 46.5911L228.022 47.5504C231.792 46.4407 235.354 46.0232 238.789 46.1014L238.812 45.1016C242.616 45.1882 246.268 45.8657 249.864 46.8863L249.591 47.8483C253.082 48.8391 256.532 50.1618 260.05 51.5942L260.427 50.6681C261.469 51.0925 262.515 51.5252 263.566 51.9603C265.95 52.9474 268.363 53.9461 270.83 54.8848L270.475 55.8194C272.222 56.4838 274.001 57.1202 275.82 57.7024C278.227 58.4724 280.381 59.1268 282.299 59.6718L282.573 58.7099C291.393 61.2156 295.113 61.3708 295.357 59.8312L296.345 59.9883C296.428 59.4652 296.297 58.9508 296.106 58.503C295.911 58.0457 295.615 57.5703 295.257 57.0868C294.541 56.1196 293.485 55.0032 292.188 53.774C290.91 52.564 290.355 51.5924 290.22 50.8803C290.103 50.2582 290.283 49.7228 290.869 49.2013L290.204 48.4541C292.24 46.6439 297.201 45.8039 303.948 46.2092L303.888 47.2074C306.03 47.336 308.361 47.5927 310.843 47.9876C312.258 48.2127 313.581 48.5708 314.835 49.0355L315.182 48.0978C317.932 49.1165 320.361 50.6225 322.686 52.3554L322.088 53.1572C323.71 54.3659 325.271 55.679 326.883 57.035C327.497 57.5515 328.119 58.0743 328.754 58.5999L329.392 57.8295C331.564 59.6271 333.831 61.4014 336.368 62.9415L335.849 63.7963C338.261 65.2598 340.923 66.5242 343.974 67.4092L344.253 66.4487C346.795 67.186 349.612 67.6504 352.795 67.7354L352.768 68.7351C354.177 68.7727 355.651 68.7378 357.199 68.6222C359.767 68.4306 361.822 68.3305 363.449 68.3104L363.437 67.3105C371.479 67.2112 369.547 69.0284 366.766 71.6448C366.202 72.1751 365.603 72.7384 365.046 73.3251L364.321 72.6363C363.478 73.5231 362.647 74.5407 362.175 75.6423C361.687 76.7815 361.564 78.0645 362.241 79.3429C362.957 80.6948 363.036 81.4646 362.869 82.0086C362.692 82.5834 362.154 83.2044 360.886 84.0401L361.436 84.875C360.302 85.6225 358.787 86.4251 356.9 87.425C354.728 88.5755 352.064 89.9872 348.919 91.8766L348.404 91.0195C346.54 92.1397 344.508 93.4264 342.312 94.9238C340.818 95.9425 339.573 96.8839 338.574 97.7703L339.238 98.5183C335.792 101.576 335.609 103.771 337.99 106.189L337.277 106.891C338.901 108.541 341.575 110.235 344.968 112.226L345.474 111.363C346.557 111.999 347.727 112.672 348.977 113.391C350.349 114.181 351.819 115.026 353.379 115.94L352.873 116.803C355.261 118.202 357.857 119.759 360.634 121.516L361.169 120.671C363.573 122.193 366.114 123.866 368.773 125.717L368.201 126.537C369.413 127.381 370.65 128.262 371.91 129.182C373.316 130.21 374.639 131.111 375.884 131.891L376.415 131.044C379.868 133.21 382.668 134.414 384.925 134.843L384.738 135.825C386.907 136.237 388.74 136.01 390.221 135.147C391.696 134.288 392.684 132.88 393.325 131.198L392.39 130.842C393.306 128.437 393.543 125.177 393.384 121.557L394.383 121.513C394.251 118.499 393.85 115.255 393.344 112.062L392.356 112.218C391.848 109.015 391.228 105.842 390.658 102.977L391.639 102.781C391.571 102.439 391.503 102.1 391.437 101.767C391.182 100.491 390.942 99.2906 390.732 98.1879C390.125 94.9978 390.755 93.3568 391.719 92.4985L391.054 91.7518C393.858 89.2543 399.898 90.6145 404.624 92.2713L404.293 93.215C406.08 93.8416 407.679 94.5126 408.832 95.0274C409.408 95.2845 409.87 95.502 410.188 95.6546C410.253 95.6855 410.311 95.7137 410.363 95.7391C410.44 95.7763 410.503 95.8073 410.552 95.8315C410.58 95.8454 410.603 95.857 410.622 95.8662C413.122 97.5309 415.232 98.7606 417.048 99.6493L417.488 98.7511C423.297 101.594 425.797 100.745 428.514 99.8218C429.481 99.4932 430.476 99.1552 431.657 98.9714L431.811 99.9595C433.436 99.7067 435.514 99.7615 438.624 100.739C439.862 101.128 441.344 101.773 443.022 102.636L443.48 101.747C446.024 103.055 448.94 104.817 452.034 106.847L451.485 107.683C454.108 109.404 456.864 111.321 459.634 113.319L460.219 112.508C462.909 114.449 465.607 116.464 468.206 118.447L467.599 119.242C470.371 121.357 473.03 123.436 475.442 125.352L476.064 124.569C479.139 127.012 481.814 129.188 483.814 130.833L483.179 131.605C484.305 132.531 485.216 133.287 485.863 133.828C484.952 134.333 484.073 134.828 483.224 135.315L483.721 136.182C480.817 137.847 478.276 139.402 476.065 140.857L475.515 140.021C472.539 141.979 470.137 143.767 468.233 145.41L468.886 146.167C465.755 148.867 464.041 151.127 463.348 153.052L462.407 152.713C461.728 154.602 461.887 156.29 462.669 157.765C463.426 159.193 464.723 160.343 466.176 161.307L466.729 160.474C468.558 161.687 470.823 162.705 472.975 163.672C473.571 163.94 474.158 164.204 474.725 164.467L474.304 165.374C475.823 166.078 477.112 166.741 478.025 167.425C478.879 168.066 479.133 168.684 479.135 169.261C479.138 169.904 478.829 170.703 478.136 171.65L478.943 172.241C476.876 175.062 472.503 177.992 468.897 180.101L468.392 179.238C466.856 180.135 465.46 180.883 464.449 181.406C464.048 181.613 463.708 181.785 463.444 181.916C462.03 180.564 460.755 179.611 459.579 179.003L459.12 179.892C455.291 177.915 453.159 180.286 450.759 182.955C450.615 183.115 450.469 183.277 450.322 183.439L449.581 182.768C448.425 184.044 447.273 185.222 445.885 186.003C444.562 186.748 443.688 187.741 443.178 188.875L444.09 189.285C443.156 191.361 443.736 193.911 444.494 195.859L443.562 196.221C443.849 196.959 444.159 197.613 444.428 198.133C443.22 198.364 442.068 198.638 440.971 198.953L441.247 199.914C437.781 200.909 434.901 202.314 432.514 204.018L431.933 203.204C429.004 205.294 426.785 207.818 425.12 210.578L425.976 211.095C424.28 213.907 423.177 216.982 422.483 220.103L421.507 219.886C420.768 223.212 420.485 226.575 420.441 229.722L421.441 229.736C421.391 233.359 421.664 236.719 421.929 239.431L420.934 239.528C420.99 240.106 421.046 240.649 421.098 241.155C421.23 242.448 421.338 243.502 421.376 244.298C421.43 245.429 420.939 246.793 419.888 248.414L420.727 248.958C419.206 251.303 416.774 253.856 414.016 256.538L413.319 255.821C412.301 256.811 411.207 257.847 410.093 258.903C408.723 260.202 407.322 261.529 405.992 262.836L406.693 263.55C404.173 266.026 401.78 268.549 399.901 271.065L399.1 270.467C397.995 271.946 397.047 273.445 396.344 274.952C395.598 276.551 395.303 278.348 395.303 280.228L396.303 280.228C396.304 283.208 397.09 286.576 398.154 289.984L397.199 290.282C397.948 292.681 398.837 295.108 399.68 297.409C399.969 298.199 400.253 298.973 400.523 299.727L401.465 299.389C402.839 303.214 403.93 306.627 403.855 309.021L402.855 308.99C402.829 309.825 402.643 310.385 402.36 310.751C402.094 311.097 401.651 311.388 400.848 311.512C399.798 311.673 398.612 311.213 397.047 309.986L396.43 310.773C394.927 309.595 393.297 307.909 391.422 305.971C390.73 305.256 390.006 304.507 389.242 303.736L389.952 303.032C387.798 300.858 385.314 298.493 382.379 296.234L381.769 297.027C379.283 295.114 376.471 293.282 373.252 291.712L373.69 290.813C370.81 289.408 367.611 288.208 364.038 287.337L363.801 288.308C360.775 287.57 357.474 287.071 353.862 286.889L353.912 285.891C350.753 285.732 347.366 285.812 343.729 286.18L343.83 287.175C340.711 287.49 337.401 288.019 333.885 288.796L333.67 287.819C332.068 288.173 330.424 288.577 328.738 289.035C327.274 289.432 325.652 289.945 323.928 290.577L324.272 291.516C321.457 292.546 318.356 293.901 315.216 295.597L314.741 294.717C311.889 296.258 309 298.08 306.257 300.195L306.868 300.987C304.272 302.989 301.814 305.257 299.652 307.801L298.89 307.153C296.71 309.719 294.816 312.568 293.372 315.713L294.281 316.13C292.941 319.049 292.004 322.223 291.603 325.661L290.609 325.545C290.238 328.727 290.314 332.119 290.929 335.724L291.915 335.556C292.429 338.568 293.331 341.742 294.681 345.08L293.754 345.455C294.364 346.964 295.064 348.504 295.857 350.076C296.597 351.541 297.359 352.881 298.14 354.104L298.982 353.565C300.852 356.491 302.822 358.699 304.864 360.306L304.245 361.092C307.008 363.267 309.919 364.416 312.902 364.775L313.022 363.783C315.934 364.134 318.91 363.685 321.881 362.719L322.19 363.67C325.019 362.751 327.821 361.386 330.538 359.815L330.038 358.95C332.622 357.455 335.155 355.758 337.587 354.056L338.16 354.875C339.31 354.07 340.422 353.275 341.502 352.503C342.882 351.517 344.21 350.568 345.504 349.678L344.938 348.854C347.857 346.847 350.502 345.215 352.756 344.445L353.079 345.391C354.664 344.85 355.823 344.842 356.678 345.269C357.775 345.818 358.554 346.589 359.096 347.531L359.963 347.031C361.143 349.078 361.354 351.796 361.049 354.715L360.055 354.611C359.801 357.043 359.171 359.644 358.436 362.131L359.395 362.415C358.804 364.412 358.154 366.311 357.589 367.96C357.35 368.659 357.126 369.312 356.928 369.909L355.979 369.595C355.618 370.687 355.322 371.657 355.193 372.38C355.13 372.727 355.086 373.123 355.145 373.479C355.176 373.665 355.246 373.913 355.423 374.141C355.619 374.395 355.897 374.559 356.211 374.611C356.382 374.64 356.682 374.671 357.048 374.708C357.25 374.729 357.473 374.752 357.706 374.778C358.402 374.855 359.302 374.968 360.352 375.15L360.523 374.165C362.719 374.545 365.561 375.221 368.574 376.481L368.189 377.403C370.498 378.369 372.902 379.683 375.179 381.482L375.799 380.697C377.85 382.317 379.806 384.319 381.513 386.797L380.69 387.364C382.102 389.413 383.342 391.805 384.315 394.602L385.26 394.274C386.101 396.693 386.745 399.399 387.136 402.427L386.144 402.555C386.313 403.863 386.434 405.234 386.501 406.672C386.594 408.656 386.833 410.517 387.202 412.261L388.181 412.054C389.012 415.979 390.524 419.264 392.521 422.014L391.712 422.602C393.996 425.748 396.88 428.21 400.079 430.14L400.596 429.284C403.705 431.16 407.142 432.53 410.647 433.536L410.371 434.497C414.035 435.549 417.761 436.207 421.259 436.63L421.379 435.637C425.465 436.131 429.259 436.302 432.299 436.404L432.266 437.403C432.824 437.422 433.352 437.438 433.85 437.453C435.458 437.502 436.746 437.541 437.663 437.621C439.386 437.771 441.609 437.089 444 436.021L443.592 435.108C446.676 433.73 450.363 431.546 454.187 429.054L454.733 429.892C458.103 427.696 461.575 425.267 464.828 422.945L464.247 422.131C465.666 421.119 467.045 420.126 468.359 419.18C470.516 417.626 472.497 416.201 474.184 415.027L474.755 415.848C476 414.982 477.07 414.264 477.927 413.736C478.821 413.186 479.378 412.911 479.638 412.84C480.193 412.688 480.875 412.37 481.606 412.016C481.773 411.935 481.945 411.851 482.123 411.764C482.764 411.451 483.486 411.099 484.312 410.727L483.901 409.815C486.241 408.762 489.366 407.568 493.373 406.87L493.545 407.855C496.322 407.37 499.541 407.128 503.24 407.355L503.301 406.357C506.269 406.539 509.534 407.016 513.112 407.899L512.872 408.87C515.765 409.584 518.873 410.569 522.205 411.888L522.573 410.958C525.426 412.088 528.438 413.457 531.614 415.105L531.153 415.992C532.569 416.727 534.019 417.518 535.503 418.368C536.846 419.137 538.165 419.874 539.46 420.58L539.939 419.702C542.714 421.215 545.379 422.585 547.94 423.83L547.503 424.729C550.377 426.127 553.121 427.369 555.745 428.48L556.135 427.559C559.077 428.805 561.865 429.886 564.511 430.836L564.173 431.777C567.225 432.874 570.087 433.799 572.778 434.606L573.065 433.648C576.174 434.581 579.054 435.356 581.733 436.06L581.479 437.027C582.165 437.207 582.837 437.382 583.495 437.554C585.88 438.175 588.083 438.75 590.147 439.349L590.426 438.389C593.536 439.292 596.324 440.249 598.866 441.486L598.428 442.385C599.749 443.028 600.994 443.745 602.178 444.57C603.446 445.454 604.474 446.429 605.316 447.47L606.094 446.842C608.093 449.314 609.133 452.159 609.792 455.093L608.816 455.312C609.231 457.162 609.483 458.989 609.737 460.828C609.894 461.969 610.052 463.115 610.25 464.274L611.236 464.105C611.782 467.299 612.597 470.235 614.52 472.502L613.757 473.149C614.768 474.342 616.052 475.358 617.689 476.15C618.951 476.761 620.539 477.209 622.343 477.555L622.531 476.572C625.086 477.062 628.215 477.363 631.713 477.592L631.648 478.59C634.128 478.752 636.791 478.878 639.556 479.01C640.001 479.031 640.449 479.052 640.899 479.074L640.947 478.075C643.94 478.218 647.048 478.375 650.182 478.596L650.112 479.593C653.17 479.809 656.246 480.085 659.26 480.468L659.386 479.476C662.511 479.873 665.576 480.385 668.489 481.063L668.262 482.037C671.362 482.759 674.266 483.667 676.873 484.819L677.277 483.904C680.259 485.221 682.882 486.859 684.99 488.905L684.294 489.623C685.35 490.648 686.265 491.776 687.021 493.019C687.711 494.156 688.145 495.662 688.3 497.541L689.297 497.458C689.534 500.315 689.148 503.816 688.25 507.802L687.274 507.583C686.591 510.614 685.604 513.944 684.357 517.503L685.301 517.833C684.215 520.933 682.938 524.196 681.501 527.575L680.581 527.184C679.275 530.254 677.837 533.422 676.29 536.653L677.192 537.085C675.723 540.153 674.157 543.276 672.515 546.423L671.629 545.96C670.042 549.002 668.383 552.067 666.673 555.128L667.546 555.616C665.851 558.647 664.106 561.674 662.328 564.67L661.468 564.16C659.685 567.164 657.869 570.136 656.038 573.051L656.885 573.583C655.002 576.581 653.104 579.518 651.211 582.364L650.378 581.81C648.399 584.786 646.425 587.662 644.48 590.406L645.296 590.984C643.188 593.957 641.113 596.776 639.099 599.399L638.306 598.79C636.036 601.746 633.848 604.448 631.784 606.836L632.541 607.49C629.9 610.545 627.455 613.096 625.291 615.018L624.627 614.271C623.113 615.616 621.774 616.615 620.636 617.253C618.931 618.208 617.309 619.271 615.757 620.425L616.354 621.227C613.338 623.47 610.58 626.071 607.971 628.909L607.235 628.233C604.685 631.006 602.281 633.996 599.927 637.084L600.722 637.69C599.155 639.745 597.606 641.849 596.043 643.971C595.343 644.922 594.64 645.877 593.931 646.833L593.128 646.237C590.887 649.259 588.604 652.274 586.186 655.197L586.957 655.835C584.551 658.743 582.011 661.567 579.254 664.215L578.562 663.494C577.217 664.785 575.822 666.033 574.366 667.227C573.026 668.326 571.647 669.444 570.232 670.578L570.858 671.358C568.179 673.506 565.374 675.711 562.465 677.952L561.855 677.16C559.109 679.277 556.27 681.426 553.357 683.592L553.954 684.395C551.144 686.484 548.266 688.589 545.337 690.693L544.753 689.881C541.895 691.935 538.988 693.988 536.047 696.028L536.617 696.849C533.704 698.87 530.758 700.877 527.794 702.857L527.239 702.026C524.279 704.003 521.303 705.953 518.325 707.862L518.865 708.704C515.846 710.639 512.826 712.532 509.82 714.369L509.298 713.516C507.774 714.448 506.254 715.365 504.739 716.266C503.317 717.111 501.968 718 500.688 718.924L501.273 719.735C498.593 721.67 496.217 723.765 494.085 725.954L493.369 725.256C491.041 727.646 489.003 730.141 487.18 732.657L487.99 733.244C486.059 735.909 484.367 738.604 482.822 741.228L481.96 740.721C480.825 742.65 479.763 744.551 478.752 746.362C478.244 747.272 477.748 748.16 477.263 749.017L478.132 749.51C476.406 752.554 474.76 755.291 472.992 757.5L472.211 756.876C471.188 758.155 470.143 759.225 469.038 760.059L469.858 761.833C471.491 761.47 473.12 761.097 474.745 760.714L474.515 759.741C477.756 758.976 480.982 758.17 484.191 757.324L484.446 758.291C487.679 757.438 490.895 756.545 494.093 755.611L493.813 754.651C497.009 753.718 500.188 752.744 503.349 751.731L503.655 752.683C506.836 751.663 510 750.602 513.145 749.503L512.814 748.559C515.959 747.459 519.085 746.319 522.191 745.141L522.546 746.076C525.666 744.892 528.767 743.669 531.848 742.407L531.469 741.481C534.552 740.218 537.616 738.916 540.658 737.576L541.062 738.491C544.116 737.145 547.15 735.761 550.162 734.339L549.735 733.435C552.746 732.013 555.736 730.554 558.703 729.057L559.153 729.95C562.134 728.446 565.093 726.905 568.029 725.327L567.556 724.446C570.487 722.871 573.395 721.258 576.28 719.609L576.776 720.477C579.675 718.821 582.549 717.127 585.4 715.398L584.881 714.543C587.727 712.817 590.549 711.055 593.345 709.257L593.886 710.098C596.693 708.295 599.474 706.455 602.23 704.581L601.668 703.754C604.42 701.882 607.148 699.976 609.848 698.035L610.432 698.847C613.141 696.9 615.824 694.919 618.48 692.904L617.875 692.107C620.526 690.096 623.151 688.051 625.747 685.973L626.372 686.754C628.977 684.67 631.554 682.552 634.103 680.402L633.458 679.638C636.001 677.493 638.516 675.315 641.001 673.106L641.666 673.853C644.159 671.637 646.623 669.389 649.058 667.11L648.375 666.38C650.803 664.107 653.202 661.802 655.571 659.467L656.273 660.179C658.648 657.837 660.993 655.465 663.307 653.063L662.587 652.37C664.895 649.974 667.172 647.549 669.417 645.094L670.155 645.769C672.406 643.308 674.625 640.818 676.812 638.3L676.057 637.644C678.238 635.133 680.386 632.593 682.502 630.025L683.274 630.661C685.394 628.088 687.482 625.487 689.536 622.858L688.748 622.243C690.796 619.622 692.81 616.974 694.791 614.299L695.595 614.895C697.579 612.216 699.529 609.51 701.444 606.779L700.625 606.205C702.534 603.482 704.409 600.734 706.248 597.961L707.082 598.513C708.924 595.735 710.732 592.931 712.504 590.102L711.657 589.571C713.421 586.755 715.15 583.914 716.843 581.049L717.704 581.557C719.399 578.688 721.059 575.794 722.682 572.877L721.808 572.391C723.424 569.486 725.003 566.558 726.545 563.607L727.431 564.07C728.974 561.117 730.48 558.142 731.949 555.145L731.051 554.705C732.513 551.719 733.938 548.712 735.325 545.683L736.234 546.099C737.621 543.071 738.969 540.022 740.279 536.952L739.359 536.56C740.663 533.504 741.929 530.427 743.155 527.331L744.085 527.699C745.312 524.6 746.5 521.482 747.648 518.345L746.709 518.001C747.851 514.884 748.953 511.747 750.015 508.592L750.963 508.911C752.026 505.753 753.049 502.577 754.032 499.383L753.076 499.088C754.053 495.915 754.989 492.724 755.885 489.516L756.848 489.785C757.744 486.579 758.599 483.355 759.413 480.116L758.443 479.872C759.253 476.649 760.022 473.409 760.75 470.154L761.726 470.372C762.451 467.127 763.136 463.866 763.779 460.591L762.798 460.398C763.438 457.139 764.037 453.864 764.593 450.576L765.579 450.743C766.135 447.462 766.649 444.168 767.121 440.86L766.131 440.718C766.599 437.434 767.027 434.136 767.411 430.825L768.405 430.941C768.79 427.632 769.132 424.31 769.433 420.976L768.437 420.886C768.734 417.587 768.989 414.275 769.202 410.952L770.2 411.016C770.413 407.693 770.584 404.359 770.713 401.013L769.713 400.975C769.84 397.663 769.925 394.34 769.968 391.007L770.968 391.02C770.989 389.349 771 387.676 771 386C771 384.31 770.989 382.623 770.967 380.939L769.967 380.952C769.924 377.591 769.838 374.241 769.709 370.902L770.708 370.863C770.578 367.497 770.404 364.141 770.188 360.797L769.19 360.861C768.974 357.509 768.714 354.169 768.412 350.841L769.408 350.75C769.103 347.395 768.756 344.052 768.365 340.722L767.372 340.838C766.982 337.503 766.548 334.182 766.073 330.874L767.062 330.732C766.583 327.397 766.061 324.076 765.497 320.769L764.511 320.937C763.946 317.629 763.339 314.336 762.691 311.058L763.672 310.864C763.018 307.558 762.322 304.268 761.584 300.994L760.608 301.214C759.871 297.942 759.092 294.686 758.272 291.447L759.241 291.201C758.414 287.935 757.545 284.686 756.635 281.453L755.673 281.724C754.764 278.497 753.815 275.288 752.825 272.096L753.78 271.799C752.782 268.582 751.743 265.382 750.663 262.201L749.716 262.522C748.639 259.347 747.521 256.191 746.363 253.054L747.301 252.708C746.135 249.549 744.929 246.41 743.684 243.29L742.755 243.661C741.511 240.547 740.228 237.453 738.906 234.38L739.825 233.984C738.495 230.893 737.126 227.823 735.718 224.774L734.81 225.193C733.404 222.149 731.959 219.125 730.476 216.124L731.373 215.681C729.883 212.666 728.355 209.673 726.789 206.703L725.904 207.169C724.34 204.202 722.738 201.258 721.099 198.338L721.971 197.849C720.326 194.917 718.643 192.009 716.924 189.125L716.065 189.637C714.347 186.756 712.593 183.9 710.803 181.068L711.648 180.534C709.852 177.693 708.02 174.877 706.152 172.087L705.321 172.644C703.455 169.857 701.554 167.096 699.618 164.361L700.434 163.783C698.492 161.041 696.515 158.325 694.504 155.636L693.704 156.235C691.695 153.549 689.652 150.891 687.576 148.261L688.361 147.641C686.279 145.003 684.163 142.394 682.014 139.812L681.245 140.452C679.1 137.876 676.922 135.328 674.711 132.809L675.463 132.15C673.246 129.624 670.997 127.128 668.716 124.662L667.982 125.341C665.706 122.88 663.399 120.449 661.06 118.049L661.776 117.351C659.432 114.944 657.056 112.568 654.649 110.224L653.951 110.94C651.551 108.601 649.12 106.294 646.659 104.018L647.338 103.284C644.872 101.003 642.376 98.7535 639.85 96.5369L639.19 97.2885C636.672 95.078 634.124 92.8998 631.548 90.7548L632.188 89.9863C629.606 87.8372 626.997 85.7213 624.359 83.6392L623.739 84.4241C621.109 82.3476 618.451 80.3048 615.765 78.2963L616.364 77.4955C613.675 75.4845 610.959 73.5078 608.217 71.566L607.639 72.3822C604.904 70.446 602.143 68.5447 599.356 66.679L599.913 65.848C597.123 63.9802 594.307 62.1479 591.466 60.3517L590.932 61.1969C588.1 59.4067 585.244 57.6525 582.363 55.935L582.875 55.076C579.991 53.3567 577.083 51.674 574.151 50.0286L573.662 50.9006C570.742 49.2617 567.798 47.6598 564.831 46.0957L565.297 45.2111C562.327 43.6452 559.334 42.117 556.319 40.6271L555.876 41.5236C552.875 40.0409 549.851 38.5961 546.807 37.1901L547.226 36.2822C544.177 34.8744 541.107 33.5052 538.016 32.1754L537.62 33.094C534.547 31.7718 531.453 30.4886 528.339 29.245L528.71 28.3163C525.59 27.0706 522.451 25.8646 519.292 24.6988L518.946 25.6369C515.809 24.4792 512.653 23.3614 509.478 22.2839L509.799 21.337C506.618 20.2573 503.418 19.2182 500.2 18.2201L499.904 19.1752C496.712 18.1852 493.503 17.2357 490.276 16.3273L490.547 15.3647C487.314 14.4548 484.065 13.586 480.799 12.7589L480.553 13.7283C477.314 12.9081 474.058 12.129 470.786 11.3916L471.006 10.4161C467.731 9.67816 464.441 8.98197 461.136 8.32809L460.942 9.30908C457.664 8.66054 454.371 8.05374 451.063 7.48923L451.231 6.50348C447.924 5.93911 444.603 5.41692 441.268 4.93747L441.126 5.92729C437.818 5.45176 434.497 5.01839 431.162 4.62773L431.278 3.63453C427.948 3.24439 424.605 2.89675 421.25 2.59216L421.159 3.58807C417.831 3.28597 414.491 3.02634 411.139 2.80972L411.203 1.8118C407.859 1.5957 404.503 1.42229 401.137 1.29212L401.098 2.29137C397.759 2.16227 394.409 2.0758 391.048 2.03251L391.061 1.03259C389.377 1.01089 387.69 1 386 1C384.31 1 382.623 1.01089 380.939 1.03259L380.952 2.03251C377.591 2.0758 374.241 2.16227 370.902 2.29137L370.863 1.29211C367.497 1.42229 364.141 1.5957 360.797 1.8118L360.861 2.80972C357.509 3.02634 354.169 3.28597 350.841 3.58807L350.75 2.59216C347.395 2.89675 344.052 3.24439 340.722 3.63453L340.838 4.62774C337.503 5.01839 334.182 5.45177 330.874 5.9273L330.732 4.93748C327.397 5.41693 324.076 5.93912 320.769 6.5035L320.937 7.48924C317.629 8.05375 314.336 8.66056 311.058 9.3091L310.864 8.32811C307.559 8.982 304.268 9.67819 300.994 10.4161L301.214 11.3916C297.942 12.129 294.686 12.9081 291.447 13.7284L291.201 12.759C287.935 13.586 284.686 14.4548 281.453 15.3647L281.724 16.3273C278.497 17.2357 275.288 18.1852 272.096 19.1752L271.799 18.2201C268.582 19.2182 265.382 20.2574 262.201 21.337L262.522 22.2839C259.347 23.3614 256.191 24.4793 253.054 25.6369L252.708 24.6988C249.549 25.8646 246.41 27.0707 243.29 28.3163L243.661 29.245C240.547 30.4886 237.453 31.7718 234.38 33.094L233.984 32.1754C230.893 33.5053 227.823 34.8744 224.774 36.2823L225.193 37.1902C222.149 38.5962 219.125 40.0409 216.124 41.5237L215.681 40.6271C212.666 42.117 209.673 43.6452 206.703 45.2111L207.169 46.0957C204.202 47.6599 201.258 49.2617 198.338 50.9007L197.849 50.0286C194.917 51.6741 192.009 53.3568 189.125 55.0761L189.637 55.935C186.756 57.6526 183.9 59.4068 181.068 61.197L180.534 60.3517C177.693 62.1479 174.877 63.9802 172.087 65.848L172.644 66.679C169.857 68.5448 167.096 70.4461 164.361 72.3822L163.783 71.5661C161.041 73.5078 158.325 75.4845 155.636 77.4956L156.235 78.2964C153.549 80.3048 150.891 82.3476 148.261 84.4241L147.641 83.6392C145.003 85.7214 142.394 87.8373 139.812 89.9863L140.452 90.7548C137.876 92.8999 135.328 95.078 132.809 97.2886L132.15 96.537C129.624 98.7536 127.128 101.003 124.662 103.284L125.341 104.018C122.88 106.294 120.449 108.601 118.049 110.94L117.351 110.224C114.944 112.568 112.568 114.944 110.224 117.351L110.94 118.049C108.601 120.449 106.294 122.88 104.018 125.341L103.284 124.662C101.003 127.128 98.7535 129.624 96.537 132.15L97.2885 132.809C95.078 135.328 92.8999 137.876 90.7548 140.452L89.9863 139.812C87.8373 142.394 85.7213 145.003 83.6392 147.641L84.4241 148.261C82.3476 150.891 80.3048 153.549 78.2963 156.235L77.4956 155.636C75.4845 158.325 73.5078 161.041 71.566 163.783L72.3822 164.361C70.446 167.096 68.5447 169.857 66.679 172.644L65.848 172.087C63.9802 174.877 62.1479 177.693 60.3517 180.534L61.1969 181.068C59.4067 183.9 57.6525 186.756 55.935 189.637L55.0761 189.125C53.3567 192.009 51.674 194.917 50.0286 197.849L50.9006 198.338C49.2617 201.258 47.6598 204.202 46.0957 207.169L45.2111 206.703C43.6452 209.673 42.117 212.666 40.6271 215.681L41.5236 216.124C40.0409 219.125 38.5962 222.149 37.1901 225.193L36.2823 224.774C34.8744 227.823 33.5052 230.893 32.1754 233.984L33.094 234.38C31.7718 237.453 30.4886 240.547 29.245 243.661L28.3163 243.29C27.0706 246.41 25.8646 249.549 24.6988 252.708L25.6369 253.054C24.4793 256.191 23.3614 259.347 22.2839 262.522L21.337 262.201C20.2574 265.382 19.2182 268.582 18.2201 271.8L19.1752 272.096C18.1852 275.288 17.2357 278.497 16.3273 281.724L15.3647 281.453C14.4548 284.686 13.586 287.935 12.759 291.201L13.7284 291.447C12.9081 294.686 12.129 297.942 11.3916 301.214L10.4161 300.994C9.67816 304.269 8.98197 307.559 8.32809 310.864L9.30908 311.058C8.66054 314.336 8.05374 317.629 7.48923 320.937L6.50348 320.769C5.93911 324.076 5.41692 327.397 4.93747 330.732L5.92729 330.874C5.45176 334.182 5.01839 337.503 4.62774 340.838L3.63453 340.722C3.24439 344.052 2.89675 347.395 2.59216 350.75L3.58807 350.841C3.28597 354.169 3.02634 357.509 2.80972 360.861L1.8118 360.797C1.59569 364.141 1.42229 367.497 1.29211 370.863L2.29137 370.902C2.16227 374.241 2.0758 377.591 2.03251 380.952L1.03259 380.939C1.01089 382.623 1 384.31 1 386C1 387.69 1.01089 389.377 1.03259 391.061L2.03251 391.048C2.0758 394.409 2.16227 397.759 2.29137 401.098L1.29211 401.137C1.42229 404.503 1.5957 407.859 1.8118 411.203L2.80972 411.139C3.02634 414.491 3.28597 417.831 3.58807 421.159L2.59216 421.25C2.89675 424.605 3.24439 427.948 3.63453 431.278L4.62774 431.162C5.01839 434.497 5.45177 437.818 5.9273 441.126L4.93748 441.268C5.41693 444.603 5.93912 447.924 6.50349 451.231L7.48924 451.063C8.05375 454.371 8.66056 457.664 9.30909 460.942L8.32811 461.136C8.98199 464.441 9.67819 467.732 10.4161 471.006L11.3916 470.786C12.129 474.058 12.9081 477.314 13.7284 480.553L12.759 480.799C13.586 484.065 14.4548 487.314 15.3647 490.547L16.3273 490.276C17.2357 493.503 18.1852 496.712 19.1752 499.904L18.2201 500.201C19.2182 503.418 20.2574 506.618 21.337 509.799L22.2839 509.478C23.3614 512.653 24.4793 515.809 25.637 518.946L24.6988 519.292C25.8646 522.451 27.0706 525.59 28.3163 528.71L29.245 528.339C30.4886 531.453 31.7718 534.547 33.094 537.62L32.1754 538.016C33.5052 541.107 34.8744 544.177 36.2823 547.226L37.1902 546.807C38.5962 549.851 40.0409 552.875 41.5237 555.876L40.6271 556.319C42.117 559.334 43.6452 562.327 45.2111 565.297L46.0957 564.831C47.6599 567.798 49.2617 570.742 50.9007 573.662L50.0286 574.151C51.6741 577.083 53.3568 579.991 55.0761 582.875L55.935 582.363C57.6526 585.244 59.4067 588.1 61.1969 590.932L60.3517 591.466C62.1479 594.307 63.9802 597.123 65.848 599.913L66.679 599.356C68.5448 602.143 70.4461 604.904 72.3822 607.639L71.5661 608.217C73.5078 610.959 75.4845 613.675 77.4956 616.364L78.2964 615.765C80.3048 618.451 82.3476 621.109 84.4241 623.739L83.6392 624.359C85.7214 626.997 87.8373 629.606 89.9863 632.188L90.7548 631.548C92.8999 634.124 95.078 636.672 97.2886 639.191L96.537 639.85C98.7536 642.376 101.003 644.872 103.284 647.338L104.018 646.659C106.294 649.12 108.601 651.551 110.94 653.951L110.224 654.649C112.568 657.056 114.944 659.432 117.351 661.776L118.049 661.06C120.449 663.399 122.88 665.706 125.341 667.982L124.662 668.716C127.128 670.997 129.624 673.246 132.15 675.463L132.809 674.711C135.328 676.922 137.876 679.1 140.452 681.245L139.812 682.014C142.394 684.163 145.003 686.279 147.641 688.361L148.261 687.576C150.891 689.652 153.549 691.695 156.235 693.704L155.636 694.504C158.325 696.516 161.041 698.492 163.783 700.434L164.361 699.618C167.096 701.554 169.857 703.455 172.644 705.321L172.087 706.152C174.877 708.02 177.693 709.852 180.534 711.648L181.068 710.803C183.9 712.593 186.756 714.347 189.637 716.065L189.125 716.924C192.009 718.643 194.917 720.326 197.849 721.971L198.338 721.099C201.258 722.738 204.202 724.34 207.169 725.904L206.703 726.789C209.673 728.355 212.666 729.883 215.681 731.373L216.124 730.476C219.125 731.959 222.149 733.404 225.193 734.81L224.774 735.718C227.823 737.126 230.893 738.495 233.984 739.825L234.38 738.906C237.453 740.228 240.547 741.511 243.661 742.755L243.29 743.684C246.41 744.929 249.549 746.135 252.708 747.301L253.054 746.363C256.191 747.521 259.347 748.639 262.522 749.716L262.201 750.663C265.382 751.743 268.582 752.782 271.8 753.78L272.096 752.825C275.288 753.815 278.497 754.764 281.724 755.673L281.453 756.635C284.686 757.545 287.935 758.414 291.201 759.241L291.447 758.272C294.686 759.092 297.942 759.871 301.214 760.608L300.994 761.584C304.269 762.322 307.559 763.018 310.864 763.672L311.058 762.691C314.336 763.339 317.629 763.946 320.937 764.511L320.769 765.497C324.076 766.061 327.397 766.583 330.732 767.063L330.874 766.073C334.182 766.548 337.503 766.982 340.838 767.372L340.722 768.365C344.052 768.756 347.395 769.103 350.75 769.408L350.841 768.412C354.169 768.714 357.509 768.974 360.861 769.19L360.797 770.188C364.141 770.404 367.497 770.578 370.863 770.708L370.902 769.709C374.241 769.838 377.591 769.924 380.952 769.967L380.939 770.967C382.623 770.989 384.31 771 386 771C387.596 771 389.19 770.99 390.781 770.971L390.769 769.971C393.957 769.932 397.135 769.854 400.304 769.738L400.341 770.737C403.535 770.62 406.719 770.464 409.892 770.269L409.831 769.271C413.012 769.076 416.183 768.842 419.343 768.57L419.429 769.566C422.612 769.292 425.784 768.979 428.945 768.627L428.835 767.633C432.002 767.281 435.157 766.891 438.3 766.462L438.436 767.453C441.601 767.022 444.754 766.552 447.894 766.044L447.734 765.057C450.879 764.548 454.011 764.002 457.13 763.417L457.314 764.4C458.882 764.106 460.447 763.803 462.008 763.491L464.949 762.902L462.243 761.608C461.09 761.056 459.999 759.955 459.019 758.289L458.157 758.797C456.689 756.302 455.583 752.841 454.857 748.779L455.841 748.603C455.279 745.463 454.946 741.943 454.853 738.221L453.853 738.246C453.767 734.835 453.882 731.265 454.201 727.669L455.197 727.757C455.506 724.285 456.008 720.79 456.708 717.396L455.728 717.194C456.461 713.644 457.408 710.201 458.576 706.999L459.515 707.342C460.125 705.67 460.795 704.07 461.524 702.56C462.236 701.087 463.05 699.462 463.941 697.703L463.049 697.251C463.572 696.219 464.121 695.142 464.69 694.025C465.73 691.986 466.837 689.813 467.981 687.531L468.875 687.98C470.428 684.882 472.049 681.58 473.659 678.141L472.753 677.717C474.261 674.495 475.757 671.153 477.176 667.742L478.099 668.126C479.499 664.762 480.826 661.329 482.015 657.876L481.07 657.55C482.27 654.065 483.329 650.564 484.181 647.098L485.152 647.336C486.055 643.665 486.73 640.022 487.097 636.47L486.102 636.368C486.493 632.597 486.53 628.943 486.119 625.479L487.112 625.362C486.658 621.539 485.67 617.919 484.012 614.609L483.118 615.056C481.535 611.897 479.328 609.046 476.381 606.596L477.021 605.827C475.628 604.669 474.08 603.601 472.367 602.63C470.622 601.641 468.994 600.681 467.472 599.747L466.949 600.599C463.251 598.327 460.173 596.201 457.569 594.174L458.184 593.385C454.73 590.695 452.136 588.192 450.049 585.761L449.29 586.413C446.583 583.261 444.691 580.209 442.898 577.022L443.769 576.532C443.254 575.617 442.742 574.681 442.218 573.723C440.993 571.482 439.7 569.118 438.139 566.603L437.29 567.13C435.536 564.305 433.429 561.265 430.641 557.902L431.411 557.264C430.263 555.879 429.002 554.441 427.605 552.943C426.534 551.793 425.542 550.696 424.624 549.647L423.872 550.306C421.602 547.712 419.777 545.41 418.315 543.354L419.13 542.774C416.978 539.748 415.648 537.297 414.849 535.27L413.918 535.637C412.335 531.626 412.675 529.052 413.085 526.907L414.067 527.095C414.097 526.937 414.129 526.779 414.161 526.619C414.427 525.275 414.711 523.844 414.348 522.275C414.015 520.831 413.847 519.321 413.823 517.76L412.823 517.775C412.778 514.744 413.259 511.565 414.106 508.35L415.073 508.605C415.846 505.672 416.932 502.697 418.209 499.767L417.292 499.368C418.569 496.436 420.029 493.561 421.545 490.831L422.419 491.316C424.032 488.412 425.712 485.669 427.305 483.194L426.464 482.653C428.42 479.612 430.242 476.979 431.647 474.948C431.696 474.878 431.744 474.808 431.791 474.739L432.614 475.308C433.32 474.288 433.922 473.416 434.373 472.73C434.799 472.083 435.161 471.498 435.31 471.101C435.695 470.075 435.934 468.357 436.089 466.477L435.092 466.395C435.316 463.669 435.378 460.313 435.336 457.545L436.336 457.529C436.307 455.658 436.23 454.023 436.118 453.015C436.067 452.555 435.875 452.119 435.643 451.732C435.407 451.336 435.094 450.934 434.735 450.534C434.016 449.734 433.047 448.871 431.946 448.001L431.326 448.786C428.534 446.581 424.679 444.183 421.433 442.511L421.891 441.622C420.706 441.011 419.587 440.489 418.617 440.104C417.669 439.727 416.786 439.449 416.1 439.38C414.614 439.231 413.413 439.891 412.414 440.695L413.041 441.474C412.468 441.935 411.907 442.497 411.324 443.082C410.38 444.028 409.379 445.032 408.18 445.753L407.665 444.895C406.884 445.365 406.035 445.682 405.054 445.753C404.726 445.776 404.208 445.715 403.481 445.527C402.77 445.343 401.923 445.054 400.962 444.672L400.593 445.602C398.196 444.65 395.234 443.188 392.122 441.507L392.598 440.627C389.913 439.177 387.112 437.561 384.466 435.969L383.951 436.826C380.964 435.03 378.178 433.268 375.977 431.811L376.529 430.978C374.85 429.866 373.532 428.945 372.735 428.332C371.417 427.319 370.269 425.846 369.112 424.021L368.267 424.556C367.505 423.354 366.762 422.04 365.985 420.667C364.815 418.599 363.571 416.399 362.076 414.252L362.896 413.681C361.759 412.047 360.47 410.431 358.957 408.918C357.401 407.362 356.104 406.373 354.886 405.76L354.437 406.653C352.799 405.829 351.443 405.825 349.763 405.821C348.439 405.817 346.915 405.813 344.893 405.407L345.09 404.427C343.841 404.176 342.377 403.761 340.616 403.069C339.433 402.605 337.959 402.037 336.239 401.38L335.882 402.315C333.42 401.375 330.447 400.251 327.093 398.986L327.446 398.05C326.446 397.673 325.413 397.283 324.349 396.882C322.533 396.198 320.628 395.479 318.652 394.733L318.299 395.669C315.499 394.612 312.555 393.499 309.515 392.345L309.87 391.41C307.014 390.327 304.074 389.207 301.09 388.066L300.733 389C297.84 387.893 294.905 386.765 291.966 385.628L292.327 384.695C289.403 383.564 286.474 382.424 283.577 381.286L283.212 382.217C280.255 381.056 277.331 379.898 274.478 378.755L274.85 377.826C273.38 377.237 271.928 376.653 270.501 376.073C268.524 375.271 266.689 374.445 264.986 373.599L264.541 374.495C260.393 372.435 257.001 370.253 254.225 368.002L254.855 367.225C251.297 364.341 248.794 361.357 247.025 358.397L246.166 358.91C243.826 354.997 242.706 351.093 242.151 347.456L243.139 347.305C242.821 345.222 242.692 343.22 242.624 341.339C242.56 339.542 242.087 337.66 241.338 335.741L240.406 336.104C239.242 333.119 237.337 329.92 235.079 326.656L235.901 326.087C233.89 323.179 231.606 320.228 229.328 317.347L228.543 317.967C227.929 317.19 227.314 316.417 226.704 315.65C225.005 313.513 223.341 311.422 221.826 309.418L222.624 308.815C221.473 307.294 220.416 305.832 219.497 304.447C218.31 302.657 217.282 300.742 216.379 298.807L215.473 299.23C213.709 295.45 212.439 291.637 211.415 288.563C211.218 287.971 211.03 287.406 210.849 286.875L211.796 286.553C211.17 284.71 210.584 283.107 209.967 282.168C209.681 281.731 209.215 281.161 208.504 281.039C207.679 280.896 207.075 281.417 206.711 281.886C206.422 282.258 206.305 282.718 206.253 283.12C206.198 283.541 206.199 284.022 206.236 284.536C206.31 285.564 206.535 286.852 206.863 288.308L207.838 288.089C208.509 291.071 209.651 294.942 210.948 299.073L209.994 299.373C210.808 301.963 211.683 304.658 212.54 307.296C212.863 308.291 213.184 309.278 213.498 310.248L214.449 309.941C215.783 314.068 217 317.914 217.779 320.85L216.813 321.106C217.231 322.682 217.51 323.947 217.617 324.829C217.639 325.007 217.652 325.16 217.659 325.289C217.502 325.188 217.307 325.034 217.073 324.812C216.368 324.142 215.515 323.047 214.511 321.598L213.689 322.168C212.669 320.696 211.538 318.93 210.309 317.008C209.118 315.148 207.835 313.142 206.467 311.116L207.296 310.557C206.072 308.744 204.777 306.908 203.418 305.14C202.182 303.534 201.66 302.438 201.448 301.506L200.473 301.727C200.203 300.54 200.33 299.465 200.49 298.108C200.655 296.711 200.855 295.015 200.694 292.589L201.691 292.522C201.536 290.187 201.059 287.235 199.951 283.323L198.989 283.595C198.29 281.127 197.332 278.26 196.033 274.903L196.966 274.542C195.979 271.991 194.798 269.164 193.388 266.022L192.475 266.432C191.329 263.878 190.029 261.112 188.556 258.114L189.454 257.673C188.801 256.344 188.114 254.969 187.392 253.547C186.618 252.024 185.903 250.526 185.243 249.052L184.33 249.46C182.879 246.216 181.692 243.085 180.74 240.057L181.694 239.757C180.645 236.423 179.886 233.22 179.372 230.137L178.386 230.301C177.807 226.825 177.536 223.495 177.515 220.293L178.515 220.287C178.492 216.86 178.759 213.583 179.245 210.434L178.257 210.282C178.782 206.877 179.557 203.623 180.493 200.493L181.451 200.78C182.422 197.533 183.569 194.417 184.793 191.398L183.866 191.022C185.148 187.86 186.51 184.816 187.833 181.856C187.841 181.837 187.85 181.818 187.858 181.799L188.771 182.207C190.184 179.047 191.564 175.959 192.756 172.924L191.825 172.558C193.1 169.314 194.157 166.135 194.816 162.974L195.795 163.178C196.15 161.477 196.394 159.773 196.498 158.061C196.688 154.941 197.155 152.873 197.749 151.562L196.839 151.149C198.707 147.026 202.053 148.684 204.732 151.071C204.867 151.309 205.006 151.544 205.15 151.776C205.955 153.078 206.568 154.044 207.012 154.736L206.904 154.824C207.306 155.315 207.614 155.72 207.797 155.965C207.862 156.053 207.906 156.113 207.939 156.158C207.955 156.179 207.968 156.196 207.979 156.212C207.981 156.214 208 156.241 208.02 156.265L208.02 156.265C208.022 156.268 208.049 156.301 208.086 156.338C208.098 156.35 208.131 156.381 208.151 156.399C208.187 156.427 208.301 156.504 208.382 156.545C208.604 156.616 209.293 156.504 209.639 156.176C209.758 155.911 209.79 155.513 209.77 155.404C209.757 155.354 209.73 155.275 209.719 155.248C209.711 155.23 209.698 155.2 209.692 155.188C209.68 155.164 209.67 155.146 209.665 155.138C209.655 155.121 209.647 155.108 209.644 155.103C209.629 155.08 209.605 155.044 209.588 155.018L209.582 155.009L209.571 154.993C209.362 154.68 208.535 153.445 206.85 150.724C206.014 149.372 205.328 147.876 204.769 146.257L203.824 146.583C202.771 143.531 202.172 140.105 201.858 136.476L202.854 136.39C202.571 133.125 202.521 129.68 202.577 126.177L201.577 126.16C201.626 123.165 201.752 120.141 201.876 117.168C201.894 116.725 201.913 116.283 201.931 115.843L202.93 115.884C203.077 112.304 203.205 108.793 203.169 105.51L202.169 105.521C202.127 101.705 201.863 98.2116 201.146 95.2682L202.118 95.0318C201.659 93.1441 201.01 91.4295 200.098 89.97C199.137 88.4327 197.696 87.4445 195.972 86.8865L195.664 87.838C193.277 87.0657 190.136 87.1561 186.61 87.812L186.427 86.8288C183.605 87.3537 180.562 88.2282 177.479 89.3006L177.808 90.2451C174.982 91.2282 172.105 92.3859 169.316 93.6053L168.915 92.6891C165.993 93.967 163.169 95.3112 160.602 96.5934L161.049 97.488C157.857 99.0829 155.06 100.584 152.967 101.741L152.483 100.866C151.782 101.254 151.159 101.604 150.626 101.906C150.913 101.27 151.297 100.595 151.781 99.8813L150.953 99.3204ZM217.636 325.806C217.635 325.806 217.637 325.795 217.644 325.777C217.64 325.797 217.637 325.806 217.636 325.806ZM218.014 325.448C218.016 325.448 218.014 325.449 218.006 325.448C218.01 325.448 218.013 325.448 218.014 325.448ZM386.337 339.154C387.033 337.813 388.601 336.391 391.97 335.559L392.21 336.53C393.133 336.302 394.211 336.117 395.471 335.995C397.205 335.827 398.979 335.805 400.782 335.908L400.839 334.91C404.374 335.113 407.993 335.788 411.607 336.785L411.341 337.749C414.76 338.693 418.185 339.931 421.54 341.337L421.926 340.415C425.338 341.845 428.666 343.442 431.833 345.069L431.376 345.958C434.791 347.713 438.019 349.506 440.966 351.167L441.457 350.296C442.167 350.696 442.861 351.089 443.536 351.471C446.404 353.094 448.94 354.53 451.039 355.593L450.587 356.485C451.72 357.06 452.749 357.538 453.647 357.883C454.531 358.221 455.359 358.459 456.07 358.498C458.349 358.625 460.257 357.976 462.062 357.207L461.67 356.287C462.102 356.104 462.534 355.91 462.973 355.713C465.61 354.53 468.477 353.243 472.64 353.495L472.579 354.493C474.132 354.587 475.897 354.909 477.943 355.569L477.944 355.569C479.613 356.106 480.83 356.603 481.687 357.055L482.154 356.171C486.233 358.325 483.528 359.941 480.015 361.157L479.687 360.212C478.514 360.619 477.244 360.98 476.088 361.31C475.966 361.345 475.845 361.379 475.725 361.413C474.985 361.625 474.171 361.975 473.315 362.356C473.152 362.429 472.987 362.503 472.818 362.579C472.082 362.909 471.29 363.264 470.411 363.618L470.784 364.546C468.03 365.654 464.462 366.735 459.765 366.731L459.766 365.731C456.708 365.729 453.13 365.252 448.931 363.969L448.639 364.925C445.5 363.967 442.034 362.571 438.203 360.611L438.658 359.72C437.09 358.918 435.458 358.019 433.759 357.014C432.517 356.279 431.292 355.585 430.085 354.928L429.607 355.806C427.025 354.401 424.529 353.172 422.127 352.094L422.536 351.181C419.803 349.955 417.188 348.922 414.705 348.048L414.373 348.992C411.527 347.991 408.856 347.201 406.378 346.569L406.625 345.6C403.57 344.821 400.806 344.279 398.365 343.875L398.202 344.862C395.941 344.488 393.958 344.232 392.277 344.016C391.413 343.905 390.63 343.804 389.929 343.703L390.073 342.713C389.039 342.563 388.241 342.419 387.652 342.25C387.251 342.136 387.019 342.029 386.89 341.95C386.865 341.821 386.838 341.645 386.829 341.434C386.806 340.945 386.873 340.293 387.225 339.615L386.337 339.154ZM356.19 32.9767L356.19 32.9763C356.734 32.254 357.009 31.4403 357.175 30.6601L356.196 30.453C356.317 29.8807 356.382 29.2789 356.447 28.6755C356.534 27.8663 356.621 27.0542 356.845 26.3062L357.803 26.5934C357.97 26.0358 358.211 25.5784 358.582 25.2069C359.313 24.4766 360.532 23.6482 362.121 22.8179L361.658 21.9316C364.048 20.6834 367.097 19.5078 370.236 18.6684L370.495 19.6344C373.565 18.8134 376.676 18.3335 379.282 18.42L379.316 17.4206C383.089 17.5458 385.959 18.7981 386.449 21.8581L385.462 22.0162C385.621 23.0077 385.488 24.3236 384.881 26.0422C384.327 27.6127 383.545 29.031 382.583 30.3103L383.382 30.9114C381.332 33.6365 378.523 35.7475 375.397 37.3422L374.943 36.4514C371.952 37.977 368.645 39.0227 365.432 39.6707L365.63 40.651C361.825 41.4186 358.175 41.636 355.342 41.4502L355.408 40.4523C354.28 40.3783 353.31 40.2394 352.537 40.0528C351.744 39.8616 351.234 39.6381 350.963 39.4413C350.793 39.3173 350.706 39.2202 350.663 39.1583C350.625 39.1027 350.621 39.0739 350.62 39.0632C350.616 39.0343 350.615 38.8901 350.834 38.5615L350.002 38.0071C350.454 37.3286 351.261 36.5827 352.178 35.7353C352.656 35.2934 353.164 34.8239 353.667 34.3218L354.374 35.0298C354.994 34.4105 355.624 33.728 356.19 32.9767ZM443.078 54.605L442.456 55.3881C439.599 53.1189 436.871 51.1518 434.267 49.4451L434.816 48.6088C431.693 46.5616 428.744 44.8823 425.962 43.5019L425.517 44.3977C422.137 42.7204 419.014 41.4942 416.138 40.5891L416.438 39.6352C412.689 38.4555 409.351 37.8118 406.404 37.4263L406.274 38.4178C403.834 38.0986 401.662 37.9589 399.746 37.8355C398.444 37.7517 397.26 37.6754 396.189 37.5556L396.3 36.5618C394.358 36.3446 392.971 35.9947 391.947 35.2982L391.385 36.125L391.947 35.2981C390.009 33.9796 389.038 32.6251 388.755 31.2257L387.774 31.4238C387.185 28.5071 388.941 25.0532 392.872 20.8482L393.602 21.5311C394.82 20.2286 396.258 18.8448 397.914 17.3724C398.94 16.4607 400.194 15.773 401.658 15.2823L401.341 14.3341C403.985 13.4483 407.17 13.1962 410.688 13.363L410.64 14.3619C413.514 14.4981 416.632 14.9209 419.881 15.5136L420.061 14.5299C423.079 15.0806 426.191 15.7732 429.301 16.5099L429.07 17.4829C430.941 17.9263 432.805 18.3838 434.651 18.8373C435.858 19.1337 437.058 19.4284 438.248 19.7162L438.483 18.7442C441.71 19.5244 444.825 20.2436 447.711 20.7816L447.527 21.7647C449.179 22.0726 450.765 22.3235 452.262 22.4936C453.59 22.6445 454.938 22.8681 456.295 23.16L456.505 22.1824C459.178 22.7578 461.873 23.5913 464.504 24.6486L464.131 25.5765C466.669 26.5964 469.145 27.8286 471.478 29.2402L471.995 28.3846C474.424 29.8543 476.703 31.5154 478.743 33.3336L478.078 34.0802C480.18 35.9526 482.012 37.9859 483.481 40.1373L484.307 39.5732C485.936 41.9577 487.144 44.496 487.805 47.1382L486.835 47.3811C487.158 48.6689 487.342 49.9789 487.375 51.3057C487.417 52.9837 487.659 54.6381 488.047 56.2585L489.019 56.0261C489.754 59.1023 491.039 62.0956 492.497 64.9459L491.606 65.4011C492.695 67.532 493.887 69.5969 495.004 71.5316C495.456 72.3142 495.895 73.0756 496.31 73.8113L497.181 73.3198C499.086 76.695 500.582 79.6917 500.721 82.1598L499.722 82.216C499.799 83.5866 499.392 84.6811 498.25 85.5941C497.526 86.1738 496.212 86.4056 494.163 86.0691L494.001 87.0559C491.378 86.6254 488.086 85.397 484.456 83.6704L484.885 82.7673C482.092 81.4386 479.086 79.8067 476.023 78.0092L475.517 78.8717C472.643 77.1855 469.727 75.3596 466.897 73.5089L467.444 72.6719C464.52 70.7602 461.687 68.8213 459.086 66.9833L458.509 67.7999C455.36 65.5739 452.551 63.496 450.332 61.7915L450.941 60.9985C449.242 59.693 447.901 58.6155 447.026 57.8656C445.684 56.7157 444.368 55.63 443.078 54.605ZM417.54 88.0008C416.45 87.9572 415.183 87.8867 413.802 87.7896L413.732 88.7871C411.434 88.6255 408.829 88.391 406.202 88.0855L406.318 87.0922C403.773 86.7963 401.215 86.4342 398.906 86.0084L398.724 86.9918C395.704 86.4352 393.089 85.7687 391.448 84.9961L391.875 84.0914C391.488 83.9094 391.193 83.7353 390.98 83.5747C390.762 83.4105 390.672 83.2911 390.64 83.2324C390.637 83.2267 390.635 83.222 390.633 83.2182C390.645 83.1881 390.688 83.1006 390.83 82.9593L390.125 82.25L390.83 82.9592C392.261 81.5366 393.408 80.188 394.293 78.9074L393.47 78.3389C396.226 74.3492 396.183 71.2384 394.445 68.8173L395.258 68.2342C393.399 65.6444 389.92 63.8778 386.08 62.6439L385.774 63.596C382.642 62.5894 379.113 61.9001 375.733 61.4348L375.869 60.4442C374.08 60.1979 372.333 60.0139 370.708 59.8785C368.805 59.7198 367.068 59.4317 365.51 59.0544L365.275 60.0263C360.37 58.8386 357.121 56.7811 355.915 54.9779L356.746 54.4218C356.284 53.7312 356.375 53.3827 356.462 53.2388C356.593 53.0232 357.062 52.6381 358.36 52.4939C359.429 52.3752 361.066 52.3026 363.095 52.2849L363.086 51.285C365.824 51.2611 369.216 51.3364 372.788 51.5193L372.737 52.518C375.915 52.6807 379.233 52.9288 382.355 53.2677L382.463 52.2735C386.082 52.6664 389.445 53.181 392.035 53.8265L391.794 54.7968C393.86 55.3115 395.23 55.8682 395.86 56.3932C396.728 57.1166 398.197 57.9941 399.952 58.961L400.435 58.0851C401.908 58.8966 403.644 59.8033 405.511 60.7786C406.533 61.3123 407.595 61.8665 408.674 62.4369L408.206 63.321C410.914 64.7522 413.718 66.2778 416.288 67.8321L416.805 66.9765C419.797 68.7858 422.482 70.6394 424.337 72.4312L423.642 73.1505C424.968 74.4316 425.705 75.5448 425.896 76.456C426.241 78.0924 426.415 79.6361 426.371 81.0276L427.371 81.0588C427.261 84.5775 425.853 87.356 422.296 88.4781L421.995 87.5244C420.833 87.8909 419.369 88.0739 417.54 88.0008Z" stroke="#C43434" stroke-width="2" stroke-dasharray="10 10"/>
</svg>
